{
  "accessors": [
    {
      "bufferView": 1,
      "componentType": 5126,
      "count": 65532,
      "max": [
        2.274190664291382,
        1.885588526725769,
        3.0896425247192383
      ],
      "min": [
        -2.1657230854034424,
        -1.1763567924499512,
        -1.5717159509658813
      ],
      "type": "VEC3"
    },
    {
      "bufferView": 1,
      "byteOffset": 786384,
      "componentType": 5126,
      "count": 65532,
      "max": [
        0.9998676776885986,
        0.9998596906661987,
        0.9993135929107666
      ],
      "min": [
        -0.9999766945838928,
        -0.999993085861206,
        -0.999995231628418
      ],
      "type": "VEC3"
    },
    {
      "bufferView": 0,
      "componentType": 5125,
      "count": 65532,
      "type": "SCALAR"
    },
    {
      "bufferView": 1,
      "byteOffset": 1572768,
      "componentType": 5126,
      "count": 65532,
      "max": [
        -0.13147810101509094,
        0.6559726595878601,
        1.1538666486740112
      ],
      "min": [
        -1.1243468523025513,
        -0.5355077981948853,
        -1.585244059562683
      ],
      "type": "VEC3"
    },
    {
      "bufferView": 1,
      "byteOffset": 2359152,
      "componentType": 5126,
      "count": 65532,
      "max": [
        0.9999299049377441,
        0.9998965859413147,
        0.999894380569458
      ],
      "min": [
        -0.9999098181724548,
        -0.9999842643737793,
        -0.9996973276138306
      ],
      "type": "VEC3"
    },
    {
      "bufferView": 0,
      "byteOffset": 262128,
      "componentType": 5125,
      "count": 65532,
      "type": "SCALAR"
    },
    {
      "bufferView": 1,
      "byteOffset": 3145536,
      "componentType": 5126,
      "count": 65532,
      "max": [
        0.7055413722991943,
        0.6533359885215759,
        0.42446744441986084
      ],
      "min": [
        -0.8907804489135742,
        -0.5395973920822144,
        -1.1224666833877563
      ],
      "type": "VEC3"
    },
    {
      "bufferView": 1,
      "byteOffset": 3931920,
      "componentType": 5126,
      "count": 65532,
      "max": [
        0.9999060034751892,
        0.9998907446861267,
        0.9998845458030701
      ],
      "min": [
        -0.9999944567680359,
        -0.9999985694885254,
        -0.9999868869781494
      ],
      "type": "VEC3"
    },
    {
      "bufferView": 0,
      "byteOffset": 524256,
      "componentType": 5125,
      "count": 65532,
      "type": "SCALAR"
    },
    {
      "bufferView": 1,
      "byteOffset": 4718304,
      "componentType": 5126,
      "count": 65532,
      "max": [
        0.7855305671691895,
        0.650883674621582,
        0.4138510227203369
      ],
      "min": [
        0.04211553931236267,
        -0.5446871519088745,
        -1.1481499671936035
      ],
      "type": "VEC3"
    },
    {
      "bufferView": 1,
      "byteOffset": 5504688,
      "componentType": 5126,
      "count": 65532,
      "max": [
        0.9999654293060303,
        0.9998869895935059,
        0.9999653100967407
      ],
      "min": [
        -0.9999644160270691,
        -0.9998467564582825,
        -0.9999875426292419
      ],
      "type": "VEC3"
    },
    {
      "bufferView": 0,
      "byteOffset": 786384,
      "componentType": 5125,
      "count": 65532,
      "type": "SCALAR"
    },
    {
      "bufferView": 1,
      "byteOffset": 6291072,
      "componentType": 5126,
      "count": 65532,
      "max": [
        0.814208447933197,
        0.6476879715919495,
        0.4121679365634918
      ],
      "min": [
        0.03079891949892044,
        -0.5442800521850586,
        -1.2039824724197388
      ],
      "type": "VEC3"
    },
    {
      "bufferView": 1,
      "byteOffset": 7077456,
      "componentType": 5126,
      "count": 65532,
      "max": [
        0.9994387626647949,
        0.9998716115951538,
        0.9999085068702698
      ],
      "min": [
        -0.9998117685317993,
        -0.999753475189209,
        -0.9999660849571228
      ],
      "type": "VEC3"
    },
    {
      "bufferView": 0,
      "byteOffset": 1048512,
      "componentType": 5125,
      "count": 65532,
      "type": "SCALAR"
    },
    {
      "bufferView": 1,
      "byteOffset": 7863840,
      "componentType": 5126,
      "count": 65532,
      "max": [
        0.9931867718696594,
        0.650883674621582,
        0.6344332695007324
      ],
      "min": [
        0.03457709774374962,
        -0.5442800521850586,
        -1.2039824724197388
      ],
      "type": "VEC3"
    },
    {
      "bufferView": 1,
      "byteOffset": 8650224,
      "componentType": 5126,
      "count": 65532,
      "max": [
        0.9999586939811707,
        0.9999670386314392,
        0.999829113483429
      ],
      "min": [
        -0.999515950679779,
        -0.9995085597038269,
        -0.9999755024909973
      ],
      "type": "VEC3"
    },
    {
      "bufferView": 0,
      "byteOffset": 1310640,
      "componentType": 5125,
      "count": 65532,
      "type": "SCALAR"
    },
    {
      "bufferView": 1,
      "byteOffset": 9436608,
      "componentType": 5126,
      "count": 65532,
      "max": [
        1.9572123289108276,
        0.6238420009613037,
        3.0333824157714844
      ],
      "min": [
        -1.1946603059768677,
        -0.5250787734985352,
        -1.5695732831954956
      ],
      "type": "VEC3"
    },
    {
      "bufferView": 1,
      "byteOffset": 10222992,
      "componentType": 5126,
      "count": 65532,
      "max": [
        0.99997478723526,
        0.9999935626983643,
        0.9999944567680359
      ],
      "min": [
        -0.9998670220375061,
        -0.9999920725822449,
        -0.9999961853027344
      ],
      "type": "VEC3"
    },
    {
      "bufferView": 0,
      "byteOffset": 1572768,
      "componentType": 5125,
      "count": 65532,
      "type": "SCALAR"
    },
    {
      "bufferView": 1,
      "byteOffset": 11009376,
      "componentType": 5126,
      "count": 65532,
      "max": [
        1.4111124277114868,
        0.6566250920295715,
        2.1316819190979004
      ],
      "min": [
        -0.9265961050987244,
        -0.5272352695465088,
        -1.1418718099594116
      ],
      "type": "VEC3"
    },
    {
      "bufferView": 1,
      "byteOffset": 11795760,
      "componentType": 5126,
      "count": 65532,
      "max": [
        0.9999426007270813,
        0.9999876618385315,
        0.9997936487197876
      ],
      "min": [
        -0.9996731877326965,
        -0.9999991059303284,
        -0.9996387958526611
      ],
      "type": "VEC3"
    },
    {
      "bufferView": 0,
      "byteOffset": 1834896,
      "componentType": 5125,
      "count": 65532,
      "type": "SCALAR"
    },
    {
      "bufferView": 1,
      "byteOffset": 12582144,
      "componentType": 5126,
      "count": 42834,
      "max": [
        -0.19595317542552948,
        0.6578827500343323,
        0.5748849511146545
      ],
      "min": [
        -0.9828567504882813,
        -0.5395147800445557,
        -1.2054160833358765
      ],
      "type": "VEC3"
    },
    {
      "bufferView": 1,
      "byteOffset": 13096152,
      "componentType": 5126,
      "count": 42834,
      "max": [
        0.9996016621589661,
        0.9998705983161926,
        0.9995632171630859
      ],
      "min": [
        -0.9997769594192505,
        -0.9998283386230469,
        -0.9996371865272522
      ],
      "type": "VEC3"
    },
    {
      "bufferView": 0,
      "byteOffset": 2097024,
      "componentType": 5125,
      "count": 42834,
      "type": "SCALAR"
    }
  ],
  "asset": {
    "extras": {
      "author": "Spacemonkey11 (https://sketchfab.com/Spacemonkey11)",
      "license": "CC-BY-4.0 (http://creativecommons.org/licenses/by/4.0/)",
      "source": "https://sketchfab.com/3d-models/ls-dspore-adult-final1-19ccf352363d464c85daee3f82e7143a",
      "title": "LS Dspore ADULT_FINAL1"
    },
    "generator": "Sketchfab-16.8.0",
    "version": "2.0"
  },
  "bufferViews": [
    {
      "buffer": 0,
      "byteLength": 2268360,
      "name": "floatBufferViews",
      "target": 34963
    },
    {
      "buffer": 0,
      "byteLength": 13610160,
      "byteOffset": 2268360,
      "byteStride": 12,
      "name": "floatBufferViews",
      "target": 34962
    }
  ],
  "buffers": [
    {
      "byteLength": 15878520,
      "uri": "scene.bin"
    }
  ],
  "materials": [
    {
      "doubleSided": true,
      "name": "Scene_-_Root",
      "pbrMetallicRoughness": {
        "metallicFactor": 0.0,
        "roughnessFactor": 0.6
      }
    }
  ],
  "meshes": [
    {
      "name": "LSDsporeADULT_FINAL1__0",
      "primitives": [
        {
          "attributes": {
            "NORMAL": 1,
            "POSITION": 0
          },
          "indices": 2,
          "material": 0,
          "mode": 4
        }
      ]
    },
    {
      "name": "LSDsporeADULT_FINAL1__0",
      "primitives": [
        {
          "attributes": {
            "NORMAL": 4,
            "POSITION": 3
          },
          "indices": 5,
          "material": 0,
          "mode": 4
        }
      ]
    },
    {
      "name": "LSDsporeADULT_FINAL1__0",
      "primitives": [
        {
          "attributes": {
            "NORMAL": 7,
            "POSITION": 6
          },
          "indices": 8,
          "material": 0,
          "mode": 4
        }
      ]
    },
    {
      "name": "LSDsporeADULT_FINAL1__0",
      "primitives": [
        {
          "attributes": {
            "NORMAL": 10,
            "POSITION": 9
          },
          "indices": 11,
          "material": 0,
          "mode": 4
        }
      ]
    },
    {
      "name": "LSDsporeADULT_FINAL1__0",
      "primitives": [
        {
          "attributes": {
            "NORMAL": 13,
            "POSITION": 12
          },
          "indices": 14,
          "material": 0,
          "mode": 4
        }
      ]
    },
    {
      "name": "LSDsporeADULT_FINAL1__0",
      "primitives": [
        {
          "attributes": {
            "NORMAL": 16,
            "POSITION": 15
          },
          "indices": 17,
          "material": 0,
          "mode": 4
        }
      ]
    },
    {
      "name": "LSDsporeADULT_FINAL1__0",
      "primitives": [
        {
          "attributes": {
            "NORMAL": 19,
            "POSITION": 18
          },
          "indices": 20,
          "material": 0,
          "mode": 4
        }
      ]
    },
    {
      "name": "LSDsporeADULT_FINAL1__0",
      "primitives": [
        {
          "attributes": {
            "NORMAL": 22,
            "POSITION": 21
          },
          "indices": 23,
          "material": 0,
          "mode": 4
        }
      ]
    },
    {
      "name": "LSDsporeADULT_FINAL1__0",
      "primitives": [
        {
          "attributes": {
            "NORMAL": 25,
            "POSITION": 24
          },
          "indices": 26,
          "material": 0,
          "mode": 4
        }
      ]
    }
  ],
  "nodes": [
    {
      "children": [
        1
      ],
      "matrix": [
        1.0,
        0.0,
        0.0,
        0.0,
        0.0,
        2.220446049250313e-16,
        -1.0,
        0.0,
        0.0,
        1.0,
        2.220446049250313e-16,
        0.0,
        0.0,
        0.0,
        0.0,
        1.0
      ],
      "name": "Sketchfab_model"
    },
    {
      "children": [
        2
      ],
      "matrix": [
        0.009999999776482582,
        0.0,
        0.0,
        0.0,
        0.0,
        0.0,
        0.009999999776482582,
        0.0,
        0.0,
        -0.009999999776482582,
        0.0,
        0.0,
        0.0,
        0.0,
        0.0,
        1.0
      ],
      "name": "aab9684157154edba6ea76f8a99ac41b.fbx"
    },
    {
      "children": [
        3,
        6,
        8
      ],
      "name": "RootNode"
    },
    {
      "children": [
        4
      ],
      "matrix": [
        -29.08647719990347,
        -5.518906457566863,
        -95.51711910171437,
        0.0,
        56.63930913109449,
        79.46723428563203,
        -21.83912397841966,
        0.0,
        77.11008775993375,
        -60.45246356562044,
        -19.98834696773717,
        0.0,
        407.6245422363281,
        590.38623046875,
        -100.54539489746094,
        1.0
      ],
      "name": "Light"
    },
    {
      "children": [
        5
      ],
      "matrix": [
        1.0,
        0.0,
        0.0,
        0.0,
        0.0,
        2.220446049250313e-16,
        1.0,
        0.0,
        0.0,
        -1.0,
        2.220446049250313e-16,
        0.0,
        0.0,
        0.0,
        0.0,
        1.0
      ],
      "name": "Object_4"
    },
    {
      "name": "Object_5"
    },
    {
      "children": [
        7
      ],
      "matrix": [
        -65.15581009765468,
        -44.527143038140764,
        -61.41704928909654,
        0.0,
        -32.40135466989878,
        89.5395708958271,
        -30.542085476036902,
        0.0,
        68.59207001076176,
        1.2755314797120858e-05,
        -72.76761921184276,
        0.0,
        735.88916015625,
        495.8309326171875,
        692.5791015625,
        1.0
      ],
      "name": "Camera"
    },
    {
      "name": "Object_7"
    },
    {
      "children": [
        9,
        10,
        11,
        12,
        13,
        14,
        15,
        16,
        17
      ],
      "matrix": [
        100.0,
        0.0,
        0.0,
        0.0,
        0.0,
        -1.629206793918314e-05,
        -99.99999999999868,
        0.0,
        0.0,
        99.99999999999868,
        -1.629206793918314e-05,
        0.0,
        0.0,
        0.0,
        0.0,
        1.0
      ],
      "name": "LSDsporeADULT_FINAL1"
    },
    {
      "mesh": 0,
      "name": "LSDsporeADULT_FINAL1__0"
    },
    {
      "mesh": 1,
      "name": "LSDsporeADULT_FINAL1__0"
    },
    {
      "mesh": 2,
      "name": "LSDsporeADULT_FINAL1__0"
    },
    {
      "mesh": 3,
      "name": "LSDsporeADULT_FINAL1__0"
    },
    {
      "mesh": 4,
      "name": "LSDsporeADULT_FINAL1__0"
    },
    {
      "mesh": 5,
      "name": "LSDsporeADULT_FINAL1__0"
    },
    {
      "mesh": 6,
      "name": "LSDsporeADULT_FINAL1__0"
    },
    {
      "mesh": 7,
      "name": "LSDsporeADULT_FINAL1__0"
    },
    {
      "mesh": 8,
      "name": "LSDsporeADULT_FINAL1__0"
    }
  ],
  "scene": 0,
  "scenes": [
    {
      "name": "Sketchfab_Scene",
      "nodes": [
        0
      ]
    }
  ]
}
