{
  "accessors": [
    {
      "bufferView": 2,
      "componentType": 5126,
      "count": 65532,
      "max": [
        0.6044909954071045,
        0.6084799766540527,
        0.29475000500679016
      ],
      "min": [
        -0.5542110204696655,
        -0.509768009185791,
        -1.0188690423965454
      ],
      "type": "VEC3"
    },
    {
      "bufferView": 2,
      "byteOffset": 786384,
      "componentType": 5126,
      "count": 65532,
      "max": [
        0.9999995231628418,
        0.9999291896820068,
        0.999933123588562
      ],
      "min": [
        -0.9999063014984131,
        -0.9999513626098633,
        -0.9999321699142456
      ],
      "type": "VEC3"
    },
    {
      "bufferView": 1,
      "componentType": 5126,
      "count": 65532,
      "max": [
        0.9886360168457031,
        0.42823201417922974
      ],
      "min": [
        0.011363999918103218,
        0.028944000601768494
      ],
      "type": "VEC2"
    },
    {
      "bufferView": 0,
      "componentType": 5125,
      "count": 65538,
      "type": "SCALAR"
    },
    {
      "bufferView": 2,
      "byteOffset": 1572768,
      "componentType": 5126,
      "count": 65534,
      "max": [
        0.6044909954071045,
        0.615293025970459,
        0.2956779897212982
      ],
      "min": [
        -0.5542110204696655,
        -0.5092229843139648,
        -1.0165430307388306
      ],
      "type": "VEC3"
    },
    {
      "bufferView": 2,
      "byteOffset": 2359176,
      "componentType": 5126,
      "count": 65534,
      "max": [
        0.9998169541358948,
        0.9999939203262329,
        0.9999146461486816
      ],
      "min": [
        -0.999906063079834,
        -0.9998599290847778,
        -0.9999654293060303
      ],
      "type": "VEC3"
    },
    {
      "bufferView": 1,
      "byteOffset": 524256,
      "componentType": 5126,
      "count": 65534,
      "max": [
        0.9943180084228516,
        0.42840200662612915
      ],
      "min": [
        0.005681999959051609,
        0.03862199932336807
      ],
      "type": "VEC2"
    },
    {
      "bufferView": 0,
      "byteOffset": 262152,
      "componentType": 5125,
      "count": 65544,
      "type": "SCALAR"
    },
    {
      "bufferView": 2,
      "byteOffset": 3145584,
      "componentType": 5126,
      "count": 65533,
      "max": [
        0.5814999938011169,
        0.6493750214576721,
        0.3995159864425659
      ],
      "min": [
        -0.6101239919662476,
        -0.5533949732780457,
        -1.0747900009155273
      ],
      "type": "VEC3"
    },
    {
      "bufferView": 2,
      "byteOffset": 3931980,
      "componentType": 5126,
      "count": 65533,
      "max": [
        0.9996773600578308,
        0.9999399185180664,
        0.9998927116394043
      ],
      "min": [
        -0.9999321699142456,
        -0.9999932050704956,
        -0.9999806880950928
      ],
      "type": "VEC3"
    },
    {
      "bufferView": 1,
      "byteOffset": 1048528,
      "componentType": 5126,
      "count": 65533,
      "max": [
        0.9976019859313965,
        0.4605500102043152
      ],
      "min": [
        0.005681999959051609,
        0.008469000458717346
      ],
      "type": "VEC2"
    },
    {
      "bufferView": 0,
      "byteOffset": 524328,
      "componentType": 5125,
      "count": 65559,
      "type": "SCALAR"
    },
    {
      "bufferView": 2,
      "byteOffset": 4718376,
      "componentType": 5126,
      "count": 65532,
      "max": [
        0.6580640077590942,
        0.6493750214576721,
        0.40525099635124207
      ],
      "min": [
        -0.5826249718666077,
        -0.5533949732780457,
        -1.0564539432525635
      ],
      "type": "VEC3"
    },
    {
      "bufferView": 2,
      "byteOffset": 5504760,
      "componentType": 5126,
      "count": 65532,
      "max": [
        0.9999488592147827,
        0.9999196529388428,
        0.9997679591178894
      ],
      "min": [
        -0.9963453412055969,
        -0.999190092086792,
        -0.9996512532234192
      ],
      "type": "VEC3"
    },
    {
      "bufferView": 1,
      "byteOffset": 1572792,
      "componentType": 5126,
      "count": 65532,
      "max": [
        0.9976019859313965,
        0.46081599593162537
      ],
      "min": [
        0.00700599979609251,
        0.00011700000322889537
      ],
      "type": "VEC2"
    },
    {
      "bufferView": 0,
      "byteOffset": 786564,
      "componentType": 5125,
      "count": 65568,
      "type": "SCALAR"
    },
    {
      "bufferView": 2,
      "byteOffset": 6291144,
      "componentType": 5126,
      "count": 65533,
      "max": [
        0.6305080056190491,
        0.6487550139427185,
        0.3759070038795471
      ],
      "min": [
        -0.5815560221672058,
        -0.5533949732780457,
        -1.0265109539031982
      ],
      "type": "VEC3"
    },
    {
      "bufferView": 2,
      "byteOffset": 7077540,
      "componentType": 5126,
      "count": 65533,
      "max": [
        0.999701201915741,
        0.9998406767845154,
        0.9997407793998718
      ],
      "min": [
        -0.9997918009757996,
        -0.9999313354492188,
        -0.9999455213546753
      ],
      "type": "VEC3"
    },
    {
      "bufferView": 1,
      "byteOffset": 2097048,
      "componentType": 5126,
      "count": 65533,
      "max": [
        0.9959440231323242,
        0.46053600311279297
      ],
      "min": [
        0.0071020000614225864,
        0.0004419999895617366
      ],
      "type": "VEC2"
    },
    {
      "bufferView": 0,
      "byteOffset": 1048836,
      "componentType": 5125,
      "count": 65541,
      "type": "SCALAR"
    },
    {
      "bufferView": 2,
      "byteOffset": 7863936,
      "componentType": 5126,
      "count": 65534,
      "max": [
        0.6580640077590942,
        0.6493750214576721,
        0.40525099635124207
      ],
      "min": [
        -0.6091099977493286,
        -0.5533949732780457,
        -1.0564539432525635
      ],
      "type": "VEC3"
    },
    {
      "bufferView": 2,
      "byteOffset": 8650344,
      "componentType": 5126,
      "count": 65534,
      "max": [
        0.9999797344207764,
        0.9997584223747253,
        0.9995716214179993
      ],
      "min": [
        -0.9994778037071228,
        -0.999699056148529,
        -0.9999758005142212
      ],
      "type": "VEC3"
    },
    {
      "bufferView": 1,
      "byteOffset": 2621312,
      "componentType": 5126,
      "count": 65534,
      "max": [
        0.9983940124511719,
        0.46254101395606995
      ],
      "min": [
        0.005681999959051609,
        0.000661000027321279
      ],
      "type": "VEC2"
    },
    {
      "bufferView": 0,
      "byteOffset": 1311000,
      "componentType": 5125,
      "count": 65538,
      "type": "SCALAR"
    },
    {
      "bufferView": 2,
      "byteOffset": 9436752,
      "componentType": 5126,
      "count": 65534,
      "max": [
        0.6305080056190491,
        0.6224349737167358,
        0.40525099635124207
      ],
      "min": [
        -0.581870973110199,
        -0.5168079733848572,
        -1.0449860095977783
      ],
      "type": "VEC3"
    },
    {
      "bufferView": 2,
      "byteOffset": 10223160,
      "componentType": 5126,
      "count": 65534,
      "max": [
        0.9997016787528992,
        0.9997943043708801,
        0.9998781681060791
      ],
      "min": [
        -0.9999387264251709,
        -0.9998794794082642,
        -0.9998924732208252
      ],
      "type": "VEC3"
    },
    {
      "bufferView": 1,
      "byteOffset": 3145584,
      "componentType": 5126,
      "count": 65534,
      "max": [
        0.996757984161377,
        0.46254101395606995
      ],
      "min": [
        0.005681999959051609,
        0.000661000027321279
      ],
      "type": "VEC2"
    },
    {
      "bufferView": 0,
      "byteOffset": 1573152,
      "componentType": 5125,
      "count": 65544,
      "type": "SCALAR"
    },
    {
      "bufferView": 2,
      "byteOffset": 11009568,
      "componentType": 5126,
      "count": 65534,
      "max": [
        0.3114680051803589,
        0.6224349737167358,
        0.3995159864425659
      ],
      "min": [
        -0.6101239919662476,
        -0.5533949732780457,
        -1.0746370553970337
      ],
      "type": "VEC3"
    },
    {
      "bufferView": 2,
      "byteOffset": 11795976,
      "componentType": 5126,
      "count": 65534,
      "max": [
        0.9999823570251465,
        0.9999719858169556,
        0.999826967716217
      ],
      "min": [
        -0.9998748302459717,
        -0.9997034668922424,
        -0.9997128844261169
      ],
      "type": "VEC3"
    },
    {
      "bufferView": 1,
      "byteOffset": 3669856,
      "componentType": 5126,
      "count": 65534,
      "max": [
        0.9984099864959717,
        0.46254101395606995
      ],
      "min": [
        0.005681999959051609,
        7.599999662488699e-05
      ],
      "type": "VEC2"
    },
    {
      "bufferView": 0,
      "byteOffset": 1835328,
      "componentType": 5125,
      "count": 65538,
      "type": "SCALAR"
    },
    {
      "bufferView": 2,
      "byteOffset": 12582384,
      "componentType": 5126,
      "count": 65533,
      "max": [
        0.596019983291626,
        0.6493750214576721,
        0.2956779897212982
      ],
      "min": [
        -0.5542110204696655,
        -0.5348230004310608,
        -1.0747900009155273
      ],
      "type": "VEC3"
    },
    {
      "bufferView": 2,
      "byteOffset": 13368780,
      "componentType": 5126,
      "count": 65533,
      "max": [
        0.9996897578239441,
        0.9997352957725525,
        0.9999924898147583
      ],
      "min": [
        -0.999909520149231,
        -0.9999778270721436,
        -0.9999710321426392
      ],
      "type": "VEC3"
    },
    {
      "bufferView": 1,
      "byteOffset": 4194128,
      "componentType": 5126,
      "count": 65533,
      "max": [
        0.9943180084228516,
        0.42840200662612915
      ],
      "min": [
        0.005681999959051609,
        0.009217999875545502
      ],
      "type": "VEC2"
    },
    {
      "bufferView": 0,
      "byteOffset": 2097480,
      "componentType": 5125,
      "count": 65535,
      "type": "SCALAR"
    },
    {
      "bufferView": 2,
      "byteOffset": 14155176,
      "componentType": 5126,
      "count": 65532,
      "max": [
        0.6044909954071045,
        0.615293025970459,
        0.2946929931640625
      ],
      "min": [
        -0.5518440008163452,
        -0.509768009185791,
        -1.0160419940948486
      ],
      "type": "VEC3"
    },
    {
      "bufferView": 2,
      "byteOffset": 14941560,
      "componentType": 5126,
      "count": 65532,
      "max": [
        0.9999961853027344,
        0.9999790191650391,
        0.9999799728393555
      ],
      "min": [
        -0.999948263168335,
        -0.9999293088912964,
        -0.9999593496322632
      ],
      "type": "VEC3"
    },
    {
      "bufferView": 1,
      "byteOffset": 4718392,
      "componentType": 5126,
      "count": 65532,
      "max": [
        0.9886360168457031,
        0.42823201417922974
      ],
      "min": [
        0.005681999959051609,
        0.03853100165724754
      ],
      "type": "VEC2"
    },
    {
      "bufferView": 0,
      "byteOffset": 2359620,
      "componentType": 5125,
      "count": 65532,
      "type": "SCALAR"
    },
    {
      "bufferView": 2,
      "byteOffset": 15727944,
      "componentType": 5126,
      "count": 41519,
      "max": [
        0.5975469946861267,
        0.6125580072402954,
        0.3759070038795471
      ],
      "min": [
        -0.5156040191650391,
        -0.5168079733848572,
        -1.006193995475769
      ],
      "type": "VEC3"
    },
    {
      "bufferView": 2,
      "byteOffset": 16226172,
      "componentType": 5126,
      "count": 41519,
      "max": [
        0.9999251365661621,
        0.9996407628059387,
        0.9999607801437378
      ],
      "min": [
        -0.9999529123306274,
        -0.9999494552612305,
        -0.9998368620872498
      ],
      "type": "VEC3"
    },
    {
      "bufferView": 1,
      "byteOffset": 5242648,
      "componentType": 5126,
      "count": 41519,
      "max": [
        0.9836429953575134,
        0.461311012506485
      ],
      "min": [
        0.007205000147223473,
        0.0004419999895617366
      ],
      "type": "VEC2"
    },
    {
      "bufferView": 0,
      "byteOffset": 2621748,
      "componentType": 5125,
      "count": 41523,
      "type": "SCALAR"
    }
  ],
  "asset": {
    "extras": {
      "author": "Spacemonkey11 (https://sketchfab.com/Spacemonkey11)",
      "license": "CC-BY-4.0 (http://creativecommons.org/licenses/by/4.0/)",
      "source": "https://sketchfab.com/3d-models/lsdspore-egg-final1-64b8b5fc05054c6c9983d61b69c29cce",
      "title": "LSDspore EGG_FINAL1"
    },
    "generator": "Sketchfab-16.8.0",
    "version": "2.0"
  },
  "bufferViews": [
    {
      "buffer": 0,
      "byteLength": 2787840,
      "name": "floatBufferViews",
      "target": 34963
    },
    {
      "buffer": 0,
      "byteLength": 5574800,
      "byteOffset": 2787840,
      "byteStride": 8,
      "name": "floatBufferViews",
      "target": 34962
    },
    {
      "buffer": 0,
      "byteLength": 16724400,
      "byteOffset": 8362640,
      "byteStride": 12,
      "name": "floatBufferViews",
      "target": 34962
    }
  ],
  "buffers": [
    {
      "byteLength": 25087040,
      "uri": "scene.bin"
    }
  ],
  "materials": [
    {
      "doubleSided": true,
      "name": "material_0",
      "pbrMetallicRoughness": {
        "metallicFactor": 0.0,
        "roughnessFactor": 0.6
      }
    }
  ],
  "meshes": [
    {
      "name": "Object_0",
      "primitives": [
        {
          "attributes": {
            "NORMAL": 1,
            "POSITION": 0,
            "TEXCOORD_0": 2
          },
          "indices": 3,
          "material": 0,
          "mode": 4
        }
      ]
    },
    {
      "name": "Object_1",
      "primitives": [
        {
          "attributes": {
            "NORMAL": 5,
            "POSITION": 4,
            "TEXCOORD_0": 6
          },
          "indices": 7,
          "material": 0,
          "mode": 4
        }
      ]
    },
    {
      "name": "Object_2",
      "primitives": [
        {
          "attributes": {
            "NORMAL": 9,
            "POSITION": 8,
            "TEXCOORD_0": 10
          },
          "indices": 11,
          "material": 0,
          "mode": 4
        }
      ]
    },
    {
      "name": "Object_3",
      "primitives": [
        {
          "attributes": {
            "NORMAL": 13,
            "POSITION": 12,
            "TEXCOORD_0": 14
          },
          "indices": 15,
          "material": 0,
          "mode": 4
        }
      ]
    },
    {
      "name": "Object_4",
      "primitives": [
        {
          "attributes": {
            "NORMAL": 17,
            "POSITION": 16,
            "TEXCOORD_0": 18
          },
          "indices": 19,
          "material": 0,
          "mode": 4
        }
      ]
    },
    {
      "name": "Object_5",
      "primitives": [
        {
          "attributes": {
            "NORMAL": 21,
            "POSITION": 20,
            "TEXCOORD_0": 22
          },
          "indices": 23,
          "material": 0,
          "mode": 4
        }
      ]
    },
    {
      "name": "Object_6",
      "primitives": [
        {
          "attributes": {
            "NORMAL": 25,
            "POSITION": 24,
            "TEXCOORD_0": 26
          },
          "indices": 27,
          "material": 0,
          "mode": 4
        }
      ]
    },
    {
      "name": "Object_7",
      "primitives": [
        {
          "attributes": {
            "NORMAL": 29,
            "POSITION": 28,
            "TEXCOORD_0": 30
          },
          "indices": 31,
          "material": 0,
          "mode": 4
        }
      ]
    },
    {
      "name": "Object_8",
      "primitives": [
        {
          "attributes": {
            "NORMAL": 33,
            "POSITION": 32,
            "TEXCOORD_0": 34
          },
          "indices": 35,
          "material": 0,
          "mode": 4
        }
      ]
    },
    {
      "name": "Object_9",
      "primitives": [
        {
          "attributes": {
            "NORMAL": 37,
            "POSITION": 36,
            "TEXCOORD_0": 38
          },
          "indices": 39,
          "material": 0,
          "mode": 4
        }
      ]
    },
    {
      "name": "Object_10",
      "primitives": [
        {
          "attributes": {
            "NORMAL": 41,
            "POSITION": 40,
            "TEXCOORD_0": 42
          },
          "indices": 43,
          "material": 0,
          "mode": 4
        }
      ]
    }
  ],
  "nodes": [
    {
      "children": [
        1
      ],
      "matrix": [
        1.0,
        0.0,
        0.0,
        0.0,
        0.0,
        2.220446049250313e-16,
        -1.0,
        0.0,
        0.0,
        1.0,
        2.220446049250313e-16,
        0.0,
        0.0,
        0.0,
        0.0,
        1.0
      ],
      "name": "Sketchfab_model"
    },
    {
      "children": [
        2,
        3,
        4,
        5,
        6,
        7,
        8,
        9,
        10,
        11,
        12
      ],
      "name": "LSDsporeEGG_FINAL1.decimate1.obj.cleaner.materialmerger.gles"
    },
    {
      "mesh": 0,
      "name": "Object_2"
    },
    {
      "mesh": 1,
      "name": "Object_3"
    },
    {
      "mesh": 2,
      "name": "Object_4"
    },
    {
      "mesh": 3,
      "name": "Object_5"
    },
    {
      "mesh": 4,
      "name": "Object_6"
    },
    {
      "mesh": 5,
      "name": "Object_7"
    },
    {
      "mesh": 6,
      "name": "Object_8"
    },
    {
      "mesh": 7,
      "name": "Object_9"
    },
    {
      "mesh": 8,
      "name": "Object_10"
    },
    {
      "mesh": 9,
      "name": "Object_11"
    },
    {
      "mesh": 10,
      "name": "Object_12"
    }
  ],
  "scene": 0,
  "scenes": [
    {
      "name": "Sketchfab_Scene",
      "nodes": [
        0
      ]
    }
  ]
}
