{
  "accessors": [
    {
      "bufferView": 2,
      "componentType": 5126,
      "count": 65532,
      "max": [
        0.9537854790687561,
        1.4065260887145996,
        0.8265237808227539
      ],
      "min": [
        -0.8363553285598755,
        -0.8923320174217224,
        -0.8054224848747253
      ],
      "type": "VEC3"
    },
    {
      "bufferView": 2,
      "byteOffset": 786384,
      "componentType": 5126,
      "count": 65532,
      "max": [
        0.9999862909317017,
        0.9999247193336487,
        0.999963104724884
      ],
      "min": [
        -0.9998841285705566,
        -0.9997857213020325,
        -0.9999532699584961
      ],
      "type": "VEC3"
    },
    {
      "bufferView": 1,
      "componentType": 5126,
      "count": 65532,
      "max": [
        0.9941580295562744,
        0.9988698363304138
      ],
      "min": [
        0.005821506958454847,
        0.5374592542648315
      ],
      "type": "VEC2"
    },
    {
      "bufferView": 0,
      "componentType": 5125,
      "count": 65532,
      "type": "SCALAR"
    },
    {
      "bufferView": 2,
      "byteOffset": 1572768,
      "componentType": 5126,
      "count": 63198,
      "max": [
        0.9531538486480713,
        1.4065260887145996,
        0.8265237808227539
      ],
      "min": [
        -0.8547012805938721,
        -0.9234849214553833,
        -0.8054224848747253
      ],
      "type": "VEC3"
    },
    {
      "bufferView": 2,
      "byteOffset": 2331144,
      "componentType": 5126,
      "count": 63198,
      "max": [
        0.9998021721839905,
        0.9999520182609558,
        0.999930739402771
      ],
      "min": [
        -0.9999092817306519,
        -0.9998813271522522,
        -0.9998999834060669
      ],
      "type": "VEC3"
    },
    {
      "bufferView": 1,
      "byteOffset": 524256,
      "componentType": 5126,
      "count": 63198,
      "max": [
        0.9991903901100159,
        0.9993491172790527
      ],
      "min": [
        0.0058996956795454025,
        0.5374593138694763
      ],
      "type": "VEC2"
    },
    {
      "bufferView": 0,
      "byteOffset": 262128,
      "componentType": 5125,
      "count": 63198,
      "type": "SCALAR"
    },
    {
      "bufferView": 2,
      "byteOffset": 3089520,
      "componentType": 5126,
      "count": 37280,
      "max": [
        0.9304760098457336,
        0.9934470653533936,
        0.8849367499351501
      ],
      "min": [
        -0.8335222005844116,
        -0.8365707397460938,
        -0.8725168704986572
      ],
      "type": "VEC3"
    },
    {
      "bufferView": 2,
      "byteOffset": 3536880,
      "componentType": 5126,
      "count": 37280,
      "max": [
        0.9998583793640137,
        0.9998847842216492,
        0.9998021721839905
      ],
      "min": [
        -0.9998988509178162,
        -0.9997896552085876,
        -0.999816358089447
      ],
      "type": "VEC3"
    },
    {
      "bufferView": 1,
      "byteOffset": 1029840,
      "componentType": 5126,
      "count": 37280,
      "max": [
        1.0,
        1.0
      ],
      "min": [
        0.0056818751618266106,
        0.5374593138694763
      ],
      "type": "VEC2"
    },
    {
      "bufferView": 0,
      "byteOffset": 514920,
      "componentType": 5125,
      "count": 43008,
      "type": "SCALAR"
    },
    {
      "bufferView": 2,
      "byteOffset": 3984240,
      "componentType": 5126,
      "count": 2800,
      "max": [
        0.4293486475944519,
        1.5331659317016602,
        0.1197943389415741
      ],
      "min": [
        0.32851874828338623,
        1.374558925628662,
        0.01778814196586609
      ],
      "type": "VEC3"
    },
    {
      "bufferView": 2,
      "byteOffset": 4017840,
      "componentType": 5126,
      "count": 2800,
      "max": [
        0.9940219521522522,
        0.9951485991477966,
        0.9999860525131226
      ],
      "min": [
        -0.9998474717140198,
        -0.08997872471809387,
        -0.9987909197807312
      ],
      "type": "VEC3"
    },
    {
      "bufferView": 1,
      "byteOffset": 1328080,
      "componentType": 5126,
      "count": 2800,
      "max": [
        0.8465911746025085,
        0.5866658687591553
      ],
      "min": [
        0.06795680522918701,
        0.5619043111801147
      ],
      "type": "VEC2"
    },
    {
      "bufferView": 0,
      "byteOffset": 686952,
      "componentType": 5125,
      "count": 4200,
      "type": "SCALAR"
    },
    {
      "bufferView": 2,
      "byteOffset": 4051440,
      "componentType": 5126,
      "count": 1951,
      "max": [
        -0.14756634831428528,
        1.5053213834762573,
        0.10557838529348373
      ],
      "min": [
        -0.27100205421447754,
        1.3253309726715088,
        -0.0035986348520964384
      ],
      "type": "VEC3"
    },
    {
      "bufferView": 2,
      "byteOffset": 4074852,
      "componentType": 5126,
      "count": 1951,
      "max": [
        0.9987557530403137,
        0.9909156560897827,
        0.9999861121177673
      ],
      "min": [
        -0.9973530769348145,
        -0.06315817683935165,
        -0.9976741671562195
      ],
      "type": "VEC3"
    },
    {
      "bufferView": 1,
      "byteOffset": 1350480,
      "componentType": 5126,
      "count": 1951,
      "max": [
        0.8435631990432739,
        0.5817023515701294
      ],
      "min": [
        0.06552863866090775,
        0.5619043111801147
      ],
      "type": "VEC2"
    },
    {
      "bufferView": 0,
      "byteOffset": 703752,
      "componentType": 5125,
      "count": 2025,
      "type": "SCALAR"
    }
  ],
  "asset": {
    "extras": {
      "author": "Spacemonkey11 (https://sketchfab.com/Spacemonkey11)",
      "license": "CC-BY-4.0 (http://creativecommons.org/licenses/by/4.0/)",
      "source": "https://sketchfab.com/3d-models/lsdsporelarva-final1-905b405b2a1c4b4d893c9172f5f4a58c",
      "title": "LSDsporeLARVA_FINAL1"
    },
    "generator": "Sketchfab-16.8.0",
    "version": "2.0"
  },
  "bufferViews": [
    {
      "buffer": 0,
      "byteLength": 711852,
      "name": "floatBufferViews",
      "target": 34963
    },
    {
      "buffer": 0,
      "byteLength": 1366088,
      "byteOffset": 711852,
      "byteStride": 8,
      "name": "floatBufferViews",
      "target": 34962
    },
    {
      "buffer": 0,
      "byteLength": 4098264,
      "byteOffset": 2077940,
      "byteStride": 12,
      "name": "floatBufferViews",
      "target": 34962
    }
  ],
  "buffers": [
    {
      "byteLength": 6176204,
      "uri": "scene.bin"
    }
  ],
  "materials": [
    {
      "doubleSided": true,
      "name": "Scene_-_Root",
      "pbrMetallicRoughness": {
        "metallicFactor": 0.0,
        "roughnessFactor": 0.6
      }
    }
  ],
  "meshes": [
    {
      "name": "Object_0",
      "primitives": [
        {
          "attributes": {
            "NORMAL": 1,
            "POSITION": 0,
            "TEXCOORD_0": 2
          },
          "indices": 3,
          "material": 0,
          "mode": 4
        }
      ]
    },
    {
      "name": "Object_1",
      "primitives": [
        {
          "attributes": {
            "NORMAL": 5,
            "POSITION": 4,
            "TEXCOORD_0": 6
          },
          "indices": 7,
          "material": 0,
          "mode": 4
        }
      ]
    },
    {
      "name": "Object_2",
      "primitives": [
        {
          "attributes": {
            "NORMAL": 9,
            "POSITION": 8,
            "TEXCOORD_0": 10
          },
          "indices": 11,
          "material": 0,
          "mode": 4
        }
      ]
    },
    {
      "name": "Object_3",
      "primitives": [
        {
          "attributes": {
            "NORMAL": 13,
            "POSITION": 12,
            "TEXCOORD_0": 14
          },
          "indices": 15,
          "material": 0,
          "mode": 4
        }
      ]
    },
    {
      "name": "Object_4",
      "primitives": [
        {
          "attributes": {
            "NORMAL": 17,
            "POSITION": 16,
            "TEXCOORD_0": 18
          },
          "indices": 19,
          "material": 0,
          "mode": 4
        }
      ]
    }
  ],
  "nodes": [
    {
      "children": [
        1
      ],
      "matrix": [
        1.0,
        0.0,
        0.0,
        0.0,
        0.0,
        2.220446049250313e-16,
        -1.0,
        0.0,
        0.0,
        1.0,
        2.220446049250313e-16,
        0.0,
        0.0,
        0.0,
        0.0,
        1.0
      ],
      "name": "Sketchfab_model"
    },
    {
      "children": [
        2
      ],
      "name": "root"
    },
    {
      "children": [
        3,
        6,
        8,
        10
      ],
      "matrix": [
        1.0,
        0.0,
        0.0,
        0.0,
        0.0,
        2.220446049250313e-16,
        1.0,
        0.0,
        0.0,
        -1.0,
        2.220446049250313e-16,
        0.0,
        0.0,
        0.0,
        0.0,
        1.0
      ],
      "name": "GLTF_SceneRootNode"
    },
    {
      "children": [
        4,
        5
      ],
      "matrix": [
        0.7652271701032367,
        0.0,
        -0.05398498277496013,
        0.0,
        0.0,
        0.813193142414093,
        0.0,
        0.0,
        0.05398498277496013,
        0.0,
        0.7652271701032367,
        0.0,
        0.0356934517621994,
        -0.39870685338974,
        -0.05551280081272125,
        1.0
      ],
      "name": "Icosphere.001_0"
    },
    {
      "mesh": 0,
      "name": "Object_4"
    },
    {
      "mesh": 1,
      "name": "Object_5"
    },
    {
      "children": [
        7
      ],
      "matrix": [
        0.7652271701032367,
        0.0,
        -0.05398498277496013,
        0.0,
        0.0,
        0.813193142414093,
        0.0,
        0.0,
        0.05398498277496013,
        0.0,
        0.7652271701032367,
        0.0,
        0.0356934517621994,
        -0.39870685338974,
        -0.05551280081272125,
        1.0
      ],
      "name": "Icosphere.002_1"
    },
    {
      "mesh": 2,
      "name": "Object_7"
    },
    {
      "children": [
        9
      ],
      "matrix": [
        0.7652271701032367,
        0.0,
        -0.05398498277496013,
        0.0,
        0.0,
        0.813193142414093,
        0.0,
        0.0,
        0.05398498277496013,
        0.0,
        0.7652271701032367,
        0.0,
        0.0356934517621994,
        -0.39870685338974,
        -0.05551280081272125,
        1.0
      ],
      "name": "Tenicle1_2"
    },
    {
      "mesh": 3,
      "name": "Object_9"
    },
    {
      "children": [
        11
      ],
      "matrix": [
        0.7652271701032367,
        0.0,
        -0.05398498277496013,
        0.0,
        0.0,
        0.813193142414093,
        0.0,
        0.0,
        0.05398498277496013,
        0.0,
        0.7652271701032367,
        0.0,
        0.0356934517621994,
        -0.39870685338974,
        -0.05551280081272125,
        1.0
      ],
      "name": "Tenicle2_3"
    },
    {
      "mesh": 4,
      "name": "Object_11"
    }
  ],
  "scene": 0,
  "scenes": [
    {
      "name": "Sketchfab_Scene",
      "nodes": [
        0
      ]
    }
  ]
}
