{
  "accessors": [
    {
      "bufferView": 1,
      "componentType": 5126,
      "count": 65532,
      "max": [
        0.6606940031051636,
        0.0371900349855423,
        1.4409958124160767
      ],
      "min": [
        -0.6058564186096191,
        -0.06860096752643585,
        0.5885772705078125
      ],
      "type": "VEC3"
    },
    {
      "bufferView": 1,
      "byteOffset": 786384,
      "componentType": 5126,
      "count": 65532,
      "max": [
        0.9999982714653015,
        0.9997850656509399,
        0.9213610291481018
      ],
      "min": [
        -0.9998100399971008,
        -0.9999632835388184,
        -0.8018364906311035
      ],
      "type": "VEC3"
    },
    {
      "bufferView": 0,
      "componentType": 5125,
      "count": 387456,
      "type": "SCALAR"
    },
    {
      "bufferView": 1,
      "byteOffset": 1572768,
      "componentType": 5126,
      "count": 65532,
      "max": [
        1.0820119380950928,
        0.19827231764793396,
        1.7007505893707275
      ],
      "min": [
        -0.606431782245636,
        -0.06752137839794159,
        0.027083754539489746
      ],
      "type": "VEC3"
    },
    {
      "bufferView": 1,
      "byteOffset": 2359152,
      "componentType": 5126,
      "count": 65532,
      "max": [
        0.9999985694885254,
        0.9999861121177673,
        0.9998654723167419
      ],
      "min": [
        -0.9999142289161682,
        -0.9999800324440002,
        -0.7406437397003174
      ],
      "type": "VEC3"
    },
    {
      "bufferView": 0,
      "byteOffset": 1549824,
      "componentType": 5125,
      "count": 388428,
      "type": "SCALAR"
    },
    {
      "bufferView": 1,
      "byteOffset": 3145536,
      "componentType": 5126,
      "count": 65532,
      "max": [
        1.0945676565170288,
        0.6587291955947876,
        1.1372737884521484
      ],
      "min": [
        -0.7722312211990356,
        -0.5448951721191406,
        -1.3146523237228394
      ],
      "type": "VEC3"
    },
    {
      "bufferView": 1,
      "byteOffset": 3931920,
      "componentType": 5126,
      "count": 65532,
      "max": [
        0.9999499917030334,
        0.9999980926513672,
        0.9999494552612305
      ],
      "min": [
        -0.9999986886978149,
        -0.9999302625656128,
        -0.9998626112937927
      ],
      "type": "VEC3"
    },
    {
      "bufferView": 0,
      "byteOffset": 3103536,
      "componentType": 5125,
      "count": 371169,
      "type": "SCALAR"
    },
    {
      "bufferView": 1,
      "byteOffset": 4718304,
      "componentType": 5126,
      "count": 43232,
      "max": [
        1.0969852209091187,
        0.6587291955947876,
        1.5396711826324463
      ],
      "min": [
        -0.8812687993049622,
        -0.5448951721191406,
        -1.1883060932159424
      ],
      "type": "VEC3"
    },
    {
      "bufferView": 1,
      "byteOffset": 5237088,
      "componentType": 5126,
      "count": 43232,
      "max": [
        0.9999668598175049,
        0.9997163414955139,
        0.9999808669090271
      ],
      "min": [
        -0.9999105334281921,
        -0.9999239444732666,
        -0.9992160797119141
      ],
      "type": "VEC3"
    },
    {
      "bufferView": 0,
      "byteOffset": 4588212,
      "componentType": 5125,
      "count": 228786,
      "type": "SCALAR"
    }
  ],
  "asset": {
    "extras": {
      "author": "Spacemonkey11 (https://sketchfab.com/Spacemonkey11)",
      "license": "CC-BY-4.0 (http://creativecommons.org/licenses/by/4.0/)",
      "source": "https://sketchfab.com/3d-models/lsdspore-pupa-final1-01263561cd3f44e085ac5653b2559ec4",
      "title": "LSDspore PUPA_FINAL1"
    },
    "generator": "Sketchfab-16.8.0",
    "version": "2.0"
  },
  "bufferViews": [
    {
      "buffer": 0,
      "byteLength": 5503356,
      "name": "floatBufferViews",
      "target": 34963
    },
    {
      "buffer": 0,
      "byteLength": 5755872,
      "byteOffset": 5503356,
      "byteStride": 12,
      "name": "floatBufferViews",
      "target": 34962
    }
  ],
  "buffers": [
    {
      "byteLength": 11259228,
      "uri": "scene.bin"
    }
  ],
  "materials": [
    {
      "doubleSided": true,
      "name": "Scene_-_Root",
      "pbrMetallicRoughness": {
        "metallicFactor": 0.0,
        "roughnessFactor": 0.6
      }
    }
  ],
  "meshes": [
    {
      "name": "Object_0",
      "primitives": [
        {
          "attributes": {
            "NORMAL": 1,
            "POSITION": 0
          },
          "indices": 2,
          "material": 0,
          "mode": 4
        }
      ]
    },
    {
      "name": "Object_1",
      "primitives": [
        {
          "attributes": {
            "NORMAL": 4,
            "POSITION": 3
          },
          "indices": 5,
          "material": 0,
          "mode": 4
        }
      ]
    },
    {
      "name": "Object_2",
      "primitives": [
        {
          "attributes": {
            "NORMAL": 7,
            "POSITION": 6
          },
          "indices": 8,
          "material": 0,
          "mode": 4
        }
      ]
    },
    {
      "name": "Object_3",
      "primitives": [
        {
          "attributes": {
            "NORMAL": 10,
            "POSITION": 9
          },
          "indices": 11,
          "material": 0,
          "mode": 4
        }
      ]
    }
  ],
  "nodes": [
    {
      "children": [
        1
      ],
      "matrix": [
        1.0,
        0.0,
        0.0,
        0.0,
        0.0,
        2.220446049250313e-16,
        -1.0,
        0.0,
        0.0,
        1.0,
        2.220446049250313e-16,
        0.0,
        0.0,
        0.0,
        0.0,
        1.0
      ],
      "name": "Sketchfab_model"
    },
    {
      "children": [
        2,
        3,
        4,
        5
      ],
      "name": "LSDsporePUPA_REV1_FINAL1.Decimate1.stl.cleaner.materialmerger.gles"
    },
    {
      "mesh": 0,
      "name": "Object_2"
    },
    {
      "mesh": 1,
      "name": "Object_3"
    },
    {
      "mesh": 2,
      "name": "Object_4"
    },
    {
      "mesh": 3,
      "name": "Object_5"
    }
  ],
  "scene": 0,
  "scenes": [
    {
      "name": "Sketchfab_Scene",
      "nodes": [
        0
      ]
    }
  ]
}
